<?xml version="1.0" standalone="no"?>
<!DOCTYPE svg PUBLIC "-//W3C//DTD SVG 20010904//EN"
 "http://www.w3.org/TR/2001/REC-SVG-20010904/DTD/svg10.dtd">
<svg version="1.0" xmlns="http://www.w3.org/2000/svg"
 width="1080.000000pt" height="1080.000000pt" viewBox="0 0 1080.000000 1080.000000"
 preserveAspectRatio="xMidYMid meet">
<metadata>
Created by potrace 1.11, written by Peter Selinger 2001-2013
</metadata>
<g transform="translate(0.000000,1080.000000) scale(0.100000,-0.100000)"
fill="#000000" stroke="none">
<path d="M7855 7789 c-192 -19 -417 -80 -567 -155 -184 -92 -385 -261 -500
-421 -168 -234 -242 -517 -209 -801 40 -343 190 -578 476 -747 256 -151 539
-240 1080 -339 358 -66 496 -96 630 -137 360 -111 586 -340 651 -658 21 -109
15 -281 -15 -396 -77 -291 -326 -559 -641 -688 -180 -74 -343 -106 -585 -114
-507 -17 -883 108 -1165 387 -173 172 -257 337 -279 549 -15 142 -51 195 -144
207 -69 10 -128 -21 -158 -82 l-24 -49 -3 -494 c-3 -511 2 -605 36 -650 37
-50 70 -66 131 -66 48 1 65 6 94 28 51 39 67 99 67 249 l0 119 93 -81 c117
-103 266 -204 390 -263 276 -133 627 -198 981 -183 517 22 888 166 1181 461
127 127 196 223 265 368 181 379 146 881 -85 1201 -52 74 -159 180 -240 241
-73 54 -244 144 -340 178 -163 57 -410 113 -810 183 -446 77 -628 125 -798
210 -127 64 -194 112 -276 200 -136 146 -198 320 -189 533 10 222 95 402 273
574 230 223 562 330 979 314 360 -13 615 -113 839 -326 165 -158 233 -289 261
-505 15 -114 27 -141 80 -180 20 -16 42 -21 86 -21 67 0 102 20 135 76 19 33
20 55 23 532 2 345 -1 510 -9 539 -30 113 -165 155 -252 78 -42 -37 -56 -82
-58 -197 -2 -51 -4 -93 -6 -93 -2 0 -34 24 -71 54 -354 285 -821 413 -1327
365z"/>
<path d="M1186 7689 c-55 -13 -91 -43 -110 -89 -22 -55 -20 -88 7 -140 15 -30
35 -50 62 -64 37 -19 61 -21 308 -24 l267 -3 0 -1954 0 -1953 -187 -4 c-150
-3 -194 -7 -218 -20 -71 -39 -99 -102 -83 -185 12 -56 60 -98 130 -112 37 -8
260 -11 718 -9 642 3 666 4 705 23 58 29 85 75 85 146 0 47 -5 63 -26 89 -55
65 -53 65 -441 68 l-353 3 0 1876 c0 1032 2 1874 4 1872 2 -2 99 -166 216
-364 117 -198 411 -695 653 -1105 242 -410 612 -1035 821 -1390 210 -355 458
-774 551 -932 l170 -288 212 0 213 0 0 2119 0 2119 188 4 c167 3 191 5 222 24
109 63 109 215 0 278 -34 21 -47 21 -740 21 -773 0 -731 3 -790 -59 -36 -40
-41 -138 -8 -185 13 -19 39 -44 58 -55 33 -20 53 -21 388 -24 l352 -3 0 -1882
c0 -1042 -4 -1877 -9 -1871 -4 5 -361 608 -793 1339 -432 732 -973 1648 -1203
2038 l-418 707 -456 -1 c-251 -1 -473 -5 -495 -10z"/>
</g>
</svg>
